<svg width="112" height="112" viewBox="0 0 112 112" fill="none" xmlns="http://www.w3.org/2000/svg">
<rect width="111.321" height="112" fill="#8BC53F"/>
<g clip-path="url(#clip0_238_5036)">
<path d="M103.32 55.7848C103.437 82.2931 82.1955 103.882 55.8757 104C29.5525 104.117 8.12068 82.7236 8.00048 56.2152C7.88362 29.7035 29.1251 8.11818 55.445 8.00048C81.7681 7.88279 103.2 29.2731 103.317 55.7848H103.32Z" fill="#8DC63F"/>
<path d="M99.7276 55.7979C99.8378 80.3122 80.1956 100.273 55.859 100.384C31.5191 100.495 11.6999 80.7124 11.5898 56.1981C11.4796 31.6839 31.1218 11.7227 55.4617 11.6118C79.7983 11.5042 99.6175 31.2837 99.7276 55.7979Z" fill="#F9E988"/>
<path d="M56.4633 14.4873C59.2411 13.9392 62.1259 14.0132 64.9372 14.4705C67.7484 14.9446 70.5196 15.819 73.0271 17.1977C75.5379 18.5898 77.7114 20.4763 79.875 22.2485C82.0319 24.0408 84.1887 25.8298 86.2354 27.797C88.3021 29.744 90.1552 31.9533 91.6576 34.3946C93.1868 36.8158 94.519 39.3849 95.4606 42.1054C97.3002 47.5496 97.9379 53.4176 97.0231 59.0131H96.7393C95.8178 53.4646 94.5658 48.1818 92.6125 43.1512C91.661 40.6359 90.6326 38.1407 89.3539 35.7599C88.0484 33.3993 86.6528 31.0689 85.0668 28.8293C83.4642 26.6099 81.5611 24.5688 79.3174 22.9849C77.0804 21.3809 74.5062 20.3385 72.0188 19.3498C69.5247 18.3477 67.0406 17.3826 64.453 16.6327C61.8688 15.8627 59.2211 15.3179 56.4633 14.7698V14.484V14.4873Z" fill="white"/>
<path d="M78.0087 40.1144C74.8101 39.183 71.498 37.8581 68.1392 36.5231C67.9455 35.6756 67.201 34.6198 65.6918 33.3251C63.4982 31.4083 59.3781 31.4588 55.819 32.3062C51.8892 31.3747 48.0062 31.0418 44.2801 31.943C13.8101 40.4003 31.0851 61.0239 19.8967 81.7618C21.4893 85.1615 38.6475 105.008 63.4749 99.6817C63.4749 99.6817 54.9843 79.1321 74.1457 69.2659C89.6879 61.266 100.916 46.4095 78.0054 40.1111L78.0087 40.1144Z" fill="#8BC53F"/>
<path d="M81.7681 53.6293C81.7681 54.6549 80.9468 55.4922 79.9284 55.4956C78.9101 55.5023 78.0787 54.6717 78.0721 53.6427C78.0654 52.6171 78.8901 51.7798 79.9117 51.7764C80.9301 51.7697 81.7614 52.6003 81.7681 53.6259V53.6293Z" fill="white"/>
<path d="M55.8189 32.3101C58.0392 32.4681 66.0657 35.1079 68.1358 36.5236C66.4196 31.4795 60.6001 30.8103 55.8189 32.3101Z" fill="#009345"/>
<path d="M57.9291 45.0607C57.9291 49.8022 54.1128 53.6424 49.4085 53.6424C44.7041 53.6424 40.8878 49.8022 40.8878 45.0607C40.8878 40.3193 44.7041 36.4824 49.4085 36.4824C54.1128 36.4824 57.9291 40.3227 57.9291 45.0607Z" fill="white"/>
<path d="M55.4049 45.1416C55.4049 48.474 52.7205 51.1776 49.4117 51.1776C46.103 51.1776 43.4186 48.4774 43.4186 45.1416C43.4186 41.8057 46.103 39.1055 49.4117 39.1055C52.7205 39.1055 55.4049 41.8091 55.4049 45.1416Z" fill="#58595B"/>
<path d="M88.6726 57.4091C81.7713 62.3086 73.9151 66.0244 62.7802 66.0244C57.5683 66.0244 56.5099 60.4457 53.0643 63.1796C51.2847 64.5919 45.0144 67.7495 40.0362 67.5108C35.0146 67.2687 26.9982 64.3296 24.7445 53.6328C23.853 64.3296 23.3989 72.2119 19.4091 81.2441C27.3521 94.0527 46.2865 103.932 63.4747 99.6853C61.6283 86.6951 72.9001 73.9739 79.2505 67.4637C81.6545 64.9988 86.262 60.9736 88.6726 57.4091Z" fill="#8BC53F"/>
<path d="M88.4023 57.7321C86.2588 59.6993 83.7079 61.1587 81.1103 62.4432C78.486 63.6908 75.7516 64.7063 72.9269 65.4428C70.1123 66.1759 67.1708 66.7273 64.1926 66.4583C61.2678 66.1994 58.1761 65.1637 56.2028 62.9207L56.2963 62.8131C58.7303 64.3936 61.5048 64.9485 64.2794 65.0292C67.054 65.1032 69.8819 64.8947 72.6698 64.3264C75.4511 63.748 78.1822 62.8838 80.8232 61.7875C83.4575 60.6913 86.0618 59.4235 88.3088 57.6211L88.399 57.7287L88.4023 57.7321Z" fill="#58595B"/>
</g>
<defs>
<clipPath id="clip0_238_5036">
<rect width="95.3206" height="96" fill="white" transform="translate(8 8)"/>
</clipPath>
</defs>
</svg>
